<svg xmlns="http://www.w3.org/2000/svg" viewBox="0 0 520 150" role="img" aria-labelledby="title">
<title id="title">Krambl Cookies</title>
<g fill="none" fill-rule="evenodd">
  <path d="M255 22c20-15 43-10 52 7 8 15 3 34-11 44-18 13-41 8-51-8-9-15-5-32 10-43Z" fill="#F1B670"/>
  <path d="M286 18c-4 7-3 14 2 20 6 6 14 8 22 5 1 9 6 15 15 19-3 8-8 15-16 20-18 12-42 7-52-10-10-17-4-38 13-49 5-3 10-5 16-5Z" fill="#FFF8F0"/>
  <g fill="#6A321E"><circle cx="264" cy="44" r="5"/><circle cx="282" cy="65" r="4.5"/><circle cx="253" cy="70" r="4"/></g>
  <text x="20" y="103" fill="#5A2B1B" font-family="Brush Script MT, Segoe Script, cursive" font-size="92" font-weight="700">Krambl</text>
  <path d="M287 116h55" stroke="#E97879" stroke-width="6" stroke-linecap="round"/>
  <text x="352" y="119" fill="#E97879" font-family="Arial, sans-serif" font-size="27" font-weight="700" letter-spacing="5">COOKIES</text>
</g>
</svg>
